Coordinates
version=1
nRows=18
nColumns=28
inDegrees=yes

Units are S.I. units (second, meters, Newtons, ...)
Angles are in degrees.

endheader
time	pelvis_tilt	pelvis_list	pelvis_rotation	pelvis_tx	pelvis_ty	pelvis_tz	hip_flexion_r	hip_adduction_r	hip_rotation_r	knee_angle_r	ankle_angle_r	subtalar_angle_r	mtp_angle_r	hip_flexion_l	hip_adduction_l	hip_rotation_l	knee_angle_l	socket_flexion	socket_adduction	socket_rotation	socket_tx	socket_ty	socket_tz	foot_flex	lumbar_extension	lumbar_bending	lumbar_rotation
      0.62916667	      0.43822621	     -4.67063303	      6.74017534	     -0.03068261	      0.98847880	      0.29401598	     23.48257448	      5.26987310	     -7.22930121	     -5.21016586	     17.64400605	    -17.43761093	    -18.08553160	    -25.32234455	     -7.42919162	     -4.76187987	     -0.88885978	     -0.13419361	      2.01480221	     22.83056604	     -0.00641768	     -0.02199454	     -0.00470424	      7.82218585	    -10.23227315	      5.22766365	     -4.18498167
      0.63333333	      0.43824282	     -4.67019097	      6.74042201	     -0.03067872	      0.98847815	      0.29401177	     23.48293562	      5.26977469	     -7.22924793	     -5.21014667	     17.64400179	    -17.43768371	    -18.08540017	    -25.32252747	     -7.42923963	     -4.76223157	     -0.88876735	     -0.13438369	      2.01510608	     22.83054139	     -0.00641821	     -0.02199473	     -0.00469791	      7.82221575	    -10.23221700	      5.22780174	     -4.18490423
      0.63750000	      0.47766235	     -4.73342937	      6.90113454	     -0.02415673	      0.98765504	      0.29377281	     23.61283881	      5.33255884	     -6.91624753	     -5.96804265	     17.41176088	    -17.44399671	    -18.04860266	    -25.52492777	     -7.53055683	     -4.73338497	     -1.05700222	      0.06825069	      1.95318680	     22.91831181	     -0.00559206	     -0.02175357	     -0.00444834	      7.78542042	    -10.19911055	      5.47206717	     -4.18133993
      0.64166667	      0.52985422	     -4.86125398	      6.65023831	     -0.01785977	      0.98654503	      0.29448556	     24.10659523	      5.60928193	     -6.76119617	     -7.39182404	     16.93655475	    -17.67027838	    -17.84146773	    -25.80493935	     -7.60541962	     -5.10302134	     -1.25226470	      0.23071633	      2.03675414	     22.77312056	     -0.00499061	     -0.02181663	     -0.00493307	      7.71547765	    -10.27304273	      5.66793193	     -4.24343931
      0.64583333	      0.41230359	     -4.99670661	      6.39255416	     -0.01114134	      0.98521530	      0.29509222	     24.63883738	      5.88532661	     -6.37253227	     -8.62247125	     16.50506817	    -17.84081499	    -17.15958510	    -26.04632652	     -7.69732469	     -5.47837399	     -1.35967972	      0.33058650	      2.09474680	     22.91831181	     -0.00536539	     -0.02176746	     -0.00528236	      7.65496816	    -10.04460222	      5.89321627	     -4.05942525
      0.65000000	      0.46749039	     -5.14238591	      6.38946221	     -0.00481814	      0.98442747	      0.29529853	     24.86665748	      6.10866611	     -6.09185819	     -9.57652962	     16.06924115	    -17.86244130	    -16.86851832	    -26.07452065	     -7.78506140	     -5.59748320	     -1.67563033	      0.66904214	      2.03505704	     22.80167735	     -0.00305687	     -0.02176483	     -0.00515752	      7.50110131	    -10.10516456	      6.15577284	     -4.00983457
      0.65416667	      0.50136563	     -5.26810010	      6.31498256	      0.00165405	      0.98355595	      0.29565147	     25.18279533	      6.32368692	     -5.86331737	    -10.70491027	     15.57433975	    -17.94386501	    -16.53202670	    -26.21035715	     -7.87894566	     -5.75395075	     -1.92812038	      0.92742354	      2.03281359	     22.78218761	     -0.00181848	     -0.02172229	     -0.00525176	      7.35725607	    -10.10187490	      6.38558660	     -3.98778407
      0.65833333	      0.40048034	     -5.38804653	      6.09402996	      0.00838594	      0.98240015	      0.29627343	     25.68624762	      6.56863596	     -5.59308819	    -11.95257809	     14.95678013	    -18.10171888	    -15.64815410	    -26.36720291	     -7.97859101	     -6.05228214	     -2.11263786	      1.09809463	      2.10966791	     22.91831181	     -0.00184136	     -0.02165900	     -0.00574447	      7.24126192	     -9.89372484	      6.60381730	     -3.83563486
      0.66250000	      0.01481650	     -5.39189068	      6.06262442	      0.01509070	      0.98116393	      0.29648931	     26.31143138	      6.57337639	     -5.38024932	    -12.77664031	     11.66781954	    -19.48777780	     -4.77034756	    -25.70087472	     -7.79790272	     -6.12700062	     -2.49994382	      1.70567228	      1.98941308	     22.91831181	      0.00261051	     -0.02140423	     -0.00521764	      7.05021397	     -9.38832351	      6.58492210	     -3.51924695
      0.66666667	      0.17701999	     -5.55367577	      5.98577467	      0.02150346	      0.98067915	      0.29691699	     26.42379851	      6.85087350	     -5.15993105	    -13.78539160	     11.32243791	    -19.35576856	     -4.75719366	    -25.87849358	     -7.92989174	     -6.20426142	     -2.81907177	      2.02800777	      1.99326960	     22.81600590	      0.00423216	     -0.02128257	     -0.00528230	      6.76476443	     -9.54428786	      6.89728067	     -3.63409661
      0.67083333	      0.30741469	     -5.72546941	      5.89901129	      0.02811823	      0.98014663	      0.29735417	     26.59110296	      7.12139312	     -5.05253821	    -14.88301312	     10.95012015	    -19.28714775	     -4.71418518	    -26.06631329	     -8.05712672	     -6.37330786	     -3.13674903	      2.35049903	      2.00313413	     22.70265433	      0.00543797	     -0.02120144	     -0.00518810	      6.51296501	     -9.63961325	      7.19277861	     -3.68065268
      0.67500000	      0.41844646	     -5.90957217	      5.80883930	      0.03473916	      0.97963684	      0.29779357	     26.74838030	      7.40033859	     -4.94646314	    -15.93584196	     10.60182020	    -19.22670512	     -4.63616270	    -26.19794038	     -8.18860872	     -6.51369453	     -3.48072117	      2.70324629	      2.00505310	     22.59786458	      0.00680537	     -0.02114956	     -0.00503865	      6.23158579	     -9.70262993	      7.49576256	     -3.65908798
      0.67916667	      0.50989353	     -6.10124816	      5.70302249	      0.04141027	      0.97916924	      0.29828525	     26.91017335	      7.68870494	     -4.85434235	    -16.97304219	     10.25256531	    -19.17355847	     -4.52514103	    -26.27983661	     -8.32467151	     -6.65203108	     -3.85399176	      3.07872911	      2.02393364	     22.48774410	      0.00827938	     -0.02106094	     -0.00492925	      5.92389188	     -9.73703891	      7.79491883	     -3.59746459
      0.68333333	      0.59453899	     -6.29787994	      5.59204999	      0.04807037	      0.97876530	      0.29879581	     27.05343038	      7.98391714	     -4.76279808	    -17.96110202	      9.92571558	    -19.12824572	     -4.40082994	    -26.29788997	     -8.46052943	     -6.77208837	     -4.26409352	      3.49080219	      2.03909158	     22.35261316	      0.01003861	     -0.02091815	     -0.00484811	      5.58446405	     -9.76985147	      8.09134133	     -3.51989351
      0.68750000	      0.66692016	     -6.49506532	      5.47423041	      0.05477341	      0.97842346	      0.29937818	     27.18819315	      8.28155670	     -4.69194248	    -18.92505070	      9.59821573	    -19.09218324	     -4.25159656	    -26.27046433	     -8.60725154	     -6.89194414	     -4.70401961	      3.92289255	      2.07904780	     22.21257489	      0.01187690	     -0.02071769	     -0.00485553	      5.22354766	     -9.78109980	      8.38102881	     -3.42424688
      0.69166667	      0.75316400	     -6.69860255	      5.37718886	      0.06138582	      0.97829267	      0.29980122	     27.23861488	      8.58327031	     -4.57074359	    -19.75580993	      9.35292827	    -19.05256631	     -4.16698127	    -26.18980189	     -8.69906865	     -6.88643066	     -5.17585702	      4.40817898	      2.06393356	     22.06014010	      0.01416772	     -0.02034280	     -0.00425445	      4.84549583	     -9.83949491	      8.70998065	     -3.36014287
      0.69583333	      0.85935705	     -6.89429696	      5.30364230	      0.06810563	      0.97814812	      0.30025566	     27.25253849	      8.87059077	     -4.46290069	    -20.59633078	      9.11122005	    -19.01661277	     -4.10596348	    -26.10605635	     -8.80701521	     -6.90472444	     -5.67802257	      4.91796046	      2.06194010	     21.84507471	      0.01642111	     -0.02008688	     -0.00380691	      4.44608627	     -9.87267515	      9.00699409	     -3.30443590
      0.70000000	      0.95923596	     -7.08530330	      5.18706993	      0.07477479	      0.97807446	      0.30086271	     27.26703145	      9.16487057	     -4.40759075	    -21.42179697	      8.87399929	    -18.98813729	     -4.04285099	    -25.98626510	     -8.93085774	     -6.94439139	     -6.21010850	      5.43734435	      2.10651695	     21.58563568	      0.01867460	     -0.01971405	     -0.00363105	      4.01835604	     -9.92555934	      9.28180479	     -3.24315325
